<svg xmlns="http://www.w3.org/2000/svg" xmlns:xlink="http://www.w3.org/1999/xlink" width="122.591" height="47.797" viewBox="0 0 122.591 47.797">
  <defs>
    <linearGradient id="linear-gradient" x1="0.717" y1="-0.007" x2="0.5" y2="1" gradientUnits="objectBoundingBox">
      <stop offset="0" stop-color="#389bff"/>
      <stop offset="1" stop-color="#0622b7"/>
    </linearGradient>
    <linearGradient id="linear-gradient-2" x1="0.628" y1="-0.017" x2="0.393" y2="1.023" gradientUnits="objectBoundingBox">
      <stop offset="0" stop-color="#0b22d6"/>
      <stop offset="1" stop-color="#3586f2"/>
    </linearGradient>
  </defs>
  <g id="Logo" transform="translate(-140 -45.375)">
    <text id="lucy.law" transform="translate(140 88.172)" font-size="20" font-family="Menlo-Bold, Menlo" font-weight="700"><tspan x="0" y="0">lucy.law</tspan></text>
    <g id="logo-2" data-name="logo" transform="translate(240.985 45.375)">
      <path id="Path_1" data-name="Path 1" d="M4.911.012A2.693,2.693,0,0,1,8,2.94L6.733,17.676A4.035,4.035,0,0,1,3.1,21.154,2.693,2.693,0,0,1,.011,18.225L1.276,3.49A4.035,4.035,0,0,1,4.911.012Z" transform="translate(12.738 0) rotate(37)" fill="url(#linear-gradient)"/>
      <path id="Path_2" data-name="Path 2" d="M4.929.012a2.7,2.7,0,0,1,3.1,2.921l-1.267,14.7a4.042,4.042,0,0,1-3.651,3.472,2.7,2.7,0,0,1-3.1-2.921l1.267-14.7A4.042,4.042,0,0,1,4.929.012Z" transform="matrix(0.809, 0.588, -0.588, 0.809, 15.1, 10.814)" fill="url(#linear-gradient-2)"/>
    </g>
  </g>
</svg>
